<?xml version="1.0" encoding="UTF-8"?>
<svg xmlns="http://www.w3.org/2000/svg" width="250px" height="250px" viewBox="0 0 283.46 283.46">
	<title>Paris transit icons - Câble</title>
	<path fill="#FFF" d="M0,9.21h283.46v265.04H0z"/>
	<rect fill="#25303B" width="283.46" height="18.43" rx="9.21"/>
	<rect fill="#25303B" width="283.46" height="18.43" rx="9.21" y="265.04"/>
	<path fill="#25303B" d="M233.58,58.37,233,55.19a3.21,3.21,0,0,0-3.72-2.6L162.67,64.34l-.3-1.68a7.93,7.93,0,0,0-9.19-6.43l-26.24,4.62a7.94,7.94,0,0,0-6.44,9.2l.3,1.67L54.16,83.47a3.21,3.21,0,0,0-2.6,3.71l.56,3.18A3.22,3.22,0,0,0,55.84,93l81.07-14.29v34.72H98a27.52,27.52,0,0,0-25.5,17,112.85,112.85,0,0,0,0,86.42,27.53,27.53,0,0,0,25.5,17h87.43a27.53,27.53,0,0,0,25.5-17,112.95,112.95,0,0,0,0-86.41,27.52,27.52,0,0,0-25.5-17h-38.9V77L231,62.08A3.21,3.21,0,0,0,233.58,58.37ZM112.11,184.83h-33a2,2,0,0,1-2-1.79q-.44-4.66-.44-9.42a99.13,99.13,0,0,1,7.62-38.31A14.81,14.81,0,0,1,98,126.14h14.09a2,2,0,0,1,2,2v54.71A2,2,0,0,1,112.11,184.83Zm57.26-2V128.13a2,2,0,0,1,2-2h14.1a14.82,14.82,0,0,1,13.72,9.17,99.13,99.13,0,0,1,7.62,38.31q0,4.75-.44,9.42a2,2,0,0,1-2,1.79h-33A2,2,0,0,1,169.37,182.84ZM154.63,221.1H128.84a2,2,0,0,1-2-2v-91a2,2,0,0,1,2-2h25.79a2,2,0,0,1,2,2v91A2,2,0,0,1,154.63,221.1Z"/>
</svg>