<?xml version="1.0" encoding="UTF-8"?>
<svg xmlns="http://www.w3.org/2000/svg" width="250px" height="250px" viewBox="0 0 283.46 283.46">
	<title>Paris transit icons - Métro Ligne 2 Nord</title>
	<circle fill="#C6C6C6" cx="141.73" cy="141.73" r="141.73"/>
	<path fill="#25303B" d="M45.03,216.81v-19.79c3.83-17.45,21.06-33.41,41.08-50.85,9.99-8.72,20.83-19.58,20.83-34.06,0-12.97-8.49-23.82-24.87-23.82-13.2,0-22.35,9.57-25.97,13.61l-15.74-20.84c14.47-12.55,27.87-18.51,48.09-18.51,26.38,0,51.29,15.32,51.29,45.96,0,25.74-16.39,37.88-34.49,54.26-7.64,7.03-22.75,20.2-24.66,28.93h61.91v25.11H45.03Zm193.4-62.7V66.53h-17.86v59.17h-.25c-.5-2.11-3.35-7.19-8.06-14.02l-31.01-45.15h-17.74v87.58h17.99v-56.94h.25c.74,1.98,3.1,7.32,7.57,13.4l31.51,43.54h17.61Z"/></svg>