<?xml version="1.0" encoding="UTF-8"?>
<svg xmlns="http://www.w3.org/2000/svg" width="250px" height="250px" viewBox="0 0 283.46 283.46">
	<title>Paris transit icons - Navette Fluviale</title>
	<path fill="#FFF" d="M0,9.21h283.46v265.04H0z"/>
	<rect fill="#25303B" width="283.46" height="18.43" rx="9.21"/>
	<rect fill="#25303B" width="283.46" height="18.43" rx="9.21" y="265.04"/>
	<path fill="#25303B" d="M96.34,207.37C96.34,207.37,96.34,207.37,96.34,207.37L96.34,207.37L96.34,207.37c5.49-1.7,11.2-2.57,17.05-2.57c7,0,13.82,1.23,20.27,3.66c2.13,0.8,4.03,1.73,5.7,2.55c0.7,0.34,1.63,0.8,2.38,1.13c0.75-0.33,1.67-0.79,2.38-1.13c1.67-0.82,3.57-1.75,5.71-2.56c6.45-2.43,13.27-3.66,20.26-3.66c5.85,0,11.56,0.87,17.05,2.57l0,0l0,0l0,0l32.75-50.99c1.51-2.35,0.18-5.49-2.56-6.04l-5.07-1.01c-0.02,0-0.04-0.01-0.05-0.01l-3.53-0.71l0-0.25c-0.05-11.19-2.34-32.91-2.36-33.04c-0.55-3.96-2.27-7.6-4.97-10.56c-2.96-3.23-6.98-5.18-11.34-5.48c-7.02-0.49-16.74-0.99-26.99-1.31v-8.67c0-2.35-1.9-4.25-4.25-4.25h-12.19V59.89c0-1.77-1.43-3.2-3.2-3.2h-3.23c-1.77,0-3.2,1.43-3.2,3.2v25.14h-12.19c-2.35,0-4.25,1.9-4.25,4.25v8.67c-10.25,0.32-19.97,0.82-26.99,1.31c-4.36,0.31-8.38,2.25-11.34,5.48c-2.7,2.95-4.42,6.6-4.97,10.57c-0.02,0.17-2.31,21.78-2.36,33.03l0,0.25l-5.14,1.03c0,0-0.01,0-0.01,0l-3.51,0.7c-2.74,0.55-4.07,3.68-2.56,6.04L96.34,207.37zM89.82,116.99c0.2-1.35,0.8-2.6,1.73-3.62c0.74-0.81,1.75-1.3,2.83-1.37c11.64-0.82,30.8-1.65,47.36-1.65s35.72,0.83,47.36,1.65c1.08,0.08,2.09,0.56,2.83,1.37c0.93,1.01,1.52,2.26,1.73,3.63c0.27,2.44,1.67,16.53,2.11,26.53c0.06,1.28-1.11,2.28-2.37,2.03l-50.02-10c-1.09-0.22-2.19-0.22-3.28,0l-50.02,10c-1.26,0.25-2.43-0.74-2.37-2.02C88.16,132.97,89.7,118.15,89.82,116.99zM235.64,229.19c-6.71-1.78-14.07-1.48-20.57,0.89l-1.53,0.55c-0.56,0.19-1.12,0.37-1.68,0.55c-1.13,0.34-2.26,0.63-3.41,0.89c-2.29,0.51-4.62,0.83-6.96,0.98c-4.66,0.3-9.38-0.08-13.95-1.18c-1.14-0.27-2.28-0.59-3.39-0.95c-0.56-0.18-1.12-0.37-1.67-0.58l-0.7-0.25l-0.61-0.22c-1.64-0.56-3.33-0.99-5.04-1.29c-3.42-0.6-6.98-0.69-10.44-0.25c-1.73,0.21-3.44,0.57-5.11,1.04c-0.83,0.24-1.66,0.51-2.47,0.81c-0.72,0.27-1.48,0.61-2.33,1.01c-1.71,0.81-3.62,1.83-5.9,2.74c-2.25,0.91-4.99,1.75-8.16,1.77c-3.17-0.03-5.91-0.86-8.16-1.77c-2.28-0.91-4.19-1.94-5.9-2.74c-0.85-0.41-1.61-0.74-2.33-1.01c-0.81-0.3-1.64-0.57-2.47-0.81c-1.67-0.48-3.38-0.83-5.11-1.04c-3.46-0.44-7.01-0.35-10.44,0.25c-1.71,0.3-3.4,0.73-5.04,1.29l-0.61,0.22l-0.7,0.25c-0.55,0.21-1.11,0.39-1.67,0.58c-1.12,0.36-2.25,0.68-3.39,0.95c-4.57,1.1-9.28,1.48-13.95,1.18c-2.33-0.16-4.66-0.48-6.96-0.98c-1.15-0.25-2.28-0.55-3.41-0.89c-0.56-0.17-1.12-0.35-1.68-0.55l-1.53-0.55c-6.5-2.37-13.86-2.67-20.57-0.89c-1.77,0.46-3.79-0.65-4.61-2.69l-1.4-3.71c-0.81-2.03,0.47-4.45,2.95-5.1c9.09-2.4,18.81-2.01,27.68,1.2l1.36,0.49c0.41,0.14,0.82,0.27,1.24,0.4c0.83,0.25,1.67,0.47,2.52,0.66c1.7,0.38,3.43,0.61,5.17,0.73c3.49,0.22,7.02-0.06,10.4-0.88c0.84-0.2,1.68-0.43,2.51-0.7c0.41-0.14,0.82-0.27,1.23-0.43l0.74-0.27l0.83-0.29c2.23-0.76,4.51-1.34,6.82-1.75c4.63-0.81,9.33-0.92,13.99-0.34c2.33,0.29,4.63,0.76,6.89,1.41c1.13,0.32,2.25,0.69,3.35,1.1c1.19,0.45,2.3,0.95,3.29,1.42c1.98,0.95,3.69,1.84,5.21,2.44c1.53,0.63,2.8,0.9,3.73,0.92c0.93-0.01,2.2-0.29,3.73-0.92c1.52-0.6,3.23-1.49,5.21-2.44c0.99-0.47,2.1-0.98,3.29-1.42c1.1-0.41,2.22-0.78,3.35-1.1c2.26-0.65,4.57-1.12,6.89-1.41c4.65-0.58,9.36-0.47,13.99,0.34c2.31,0.41,4.6,0.99,6.82,1.75l0.83,0.29l0.74,0.27c0.41,0.15,0.82,0.29,1.23,0.43c0.82,0.27,1.66,0.5,2.51,0.7c3.38,0.82,6.9,1.1,10.4,0.88c1.74-0.12,3.47-0.35,5.17-0.73c0.85-0.19,1.69-0.41,2.52-0.66c0.41-0.13,0.83-0.26,1.24-0.4l1.36-0.49c8.88-3.21,18.59-3.6,27.68-1.2h0c2.48,0.65,3.76,3.08,2.95,5.1l-1.4,3.71C239.43,228.54,237.41,229.65,235.64,229.19z"/>
</svg>