<svg xmlns="http://www.w3.org/2000/svg" fill="#1972D2" viewBox="0 0 20 20" id="trafic-4">
    <g clip-path="url(#mla)">
        <path
            d="M16.666.666H3.333A2.667 2.667 0 0 0 .667 3.333v13.333a2.667 2.667 0 0 0 2.666 2.667h13.334a2.667 2.667 0 0 0 2.666-2.667V3.333A2.667 2.667 0 0 0 16.667.666Z"
            fill="#FDB557" />
        <path fill-rule="evenodd" clip-rule="evenodd"
            d="M3.333 1.166c-1.196 0-2.167.97-2.167 2.167v13.333c0 1.197.97 2.167 2.167 2.167h13.334c1.196 0 2.166-.97 2.166-2.167V3.333c0-1.197-.97-2.167-2.166-2.167H3.332ZM.167 3.333A3.167 3.167 0 0 1 3.333.166h13.334a3.167 3.167 0 0 1 3.166 3.167v13.333a3.167 3.167 0 0 1-3.166 3.167H3.332a3.167 3.167 0 0 1-3.166-3.167V3.333Z"
            fill="#fff" />
        <path
            d="M10 14.583a.833.833 0 1 0 0-1.667.833.833 0 0 0 0 1.667ZM10.833 6.667a.833.833 0 0 0-1.667 0v4.167a.833.833 0 0 0 1.667 0V6.667Z"
            fill="#25303B" />
    </g>
    <defs>
        <clipPath id="mla">
            <path fill="#fff" d="M0 0h20v20H0z" />
        </clipPath>
    </defs>
</svg>
