<svg xmlns="http://www.w3.org/2000/svg" fill="none" viewBox="0 0 40 40" id="trafic-2">
    <g clip-path="url(#mja)">
        <path
            d="M33.333 1.332H6.666a5.333 5.333 0 0 0-5.333 5.333v26.667a5.333 5.333 0 0 0 5.333 5.333h26.667a5.333 5.333 0 0 0 5.333-5.333V6.665a5.333 5.333 0 0 0-5.333-5.333Z"
            fill="#F9A825" />
        <path fill-rule="evenodd" clip-rule="evenodd"
            d="M6.666 2.332a4.333 4.333 0 0 0-4.333 4.333v26.667a4.333 4.333 0 0 0 4.333 4.333h26.667a4.333 4.333 0 0 0 4.333-4.333V6.665a4.333 4.333 0 0 0-4.333-4.333H6.666ZM.333 6.665A6.333 6.333 0 0 1 6.666.332h26.667a6.333 6.333 0 0 1 6.333 6.333v26.667a6.333 6.333 0 0 1-6.333 6.333H6.666a6.333 6.333 0 0 1-6.333-6.333V6.665Z"
            fill="#fff" />
        <path
            d="M19.924 14.735v6.363l2.696 1.923.827-1.118-2.085-1.504v-5.664h-1.438ZM17.576 15.919c0-3.252-2.646-5.919-5.871-5.919-3.226 0-5.872 2.667-5.872 5.919 0 3.251 2.646 5.918 5.872 5.918 3.225-.036 5.87-2.667 5.87-5.918Zm-6.596-3.435h1.45v4.421h-1.45v-4.42Zm.58 7.051c-.037 0-.073-.036-.145-.036-.036 0-.073-.037-.145-.073-.036-.037-.073-.073-.109-.073-.036-.037-.072-.073-.072-.11-.037-.036-.037-.073-.073-.11-.036-.036-.036-.072-.036-.146v-.292c0-.036.036-.073.036-.146 0-.037.036-.073.073-.146.036-.037.036-.073.072-.11.036-.036.073-.073.109-.073.036-.036.072-.036.145-.073.036 0 .072-.036.145-.036h.29c.036 0 .108.036.145.036.036.037.072.037.108.073.037.037.073.073.11.073.035.037.072.073.072.11.036.036.036.073.072.146.036.037.036.073.036.146v.292c0 .037-.036.074-.036.147 0 .036-.036.073-.072.11-.037.036-.037.072-.073.109-.036.036-.072.073-.109.073-.036.036-.072.036-.108.073-.037.037-.073.037-.145.037h-.145a.11.11 0 0 1-.145 0Z"
            fill="#25303B" />
        <path
            d="M21.29 10c-1.4 0-2.728.279-3.913.767.395.314.754.698 1.077 1.081a9.64 9.64 0 0 1 2.837-.453c4.918 0 8.94 3.906 8.94 8.684 0 4.778-4.022 8.65-8.94 8.65a8.982 8.982 0 0 1-8.007-4.849c-.287.035-.61.07-.933.07-.216 0-.431 0-.646-.035 1.58 3.627 5.277 6.208 9.586 6.208 5.708 0 10.376-4.534 10.376-10.079C31.667 14.5 26.999 10 21.29 10Z"
            fill="#25303B" stroke="#25303B" stroke-width=".2" />
    </g>
    <defs>
        <clipPath id="mja">
            <path fill="#fff" d="M0 0h40v40H0z" />
        </clipPath>
    </defs>
</svg>
