<svg xmlns="http://www.w3.org/2000/svg" fill="none" viewBox="0 0 40 40" id="trafic-3">
    <g clip-path="url(#mka)">
        <path
            d="M33.333 1.332H6.666a5.333 5.333 0 0 0-5.333 5.333v26.667a5.333 5.333 0 0 0 5.333 5.333h26.667a5.333 5.333 0 0 0 5.333-5.333V6.665a5.333 5.333 0 0 0-5.333-5.333Z"
            fill="#EB2132" />
        <path fill-rule="evenodd" clip-rule="evenodd"
            d="M6.666 2.332a4.333 4.333 0 0 0-4.333 4.333v26.667a4.333 4.333 0 0 0 4.333 4.333h26.667a4.333 4.333 0 0 0 4.333-4.333V6.665a4.333 4.333 0 0 0-4.333-4.333H6.666ZM.333 6.665A6.333 6.333 0 0 1 6.666.332h26.667a6.333 6.333 0 0 1 6.333 6.333v26.667a6.333 6.333 0 0 1-6.333 6.333H6.666a6.333 6.333 0 0 1-6.333-6.333V6.665Z"
            fill="#fff" />
        <path
            d="M20 29.165a1.667 1.667 0 1 0 0-3.333 1.667 1.667 0 0 0 0 3.333ZM21.666 13.335a1.667 1.667 0 1 0-3.333 0v8.333a1.667 1.667 0 0 0 3.333 0v-8.333Z"
            fill="#fff" />
    </g>
    <defs>
        <clipPath id="mka">
            <path fill="#fff" d="M0 0h40v40H0z" />
        </clipPath>
    </defs>
</svg>
