<?xml version="1.0" encoding="UTF-8"?>
<svg xmlns="http://www.w3.org/2000/svg" width="250px" height="250px" viewBox="0 0 283.46 283.46" fill="#0064B0">
	<title>Paris transit icons - Vélo 4</title>
	<path fill="#FFF" d="M0,28.35h283.46v226.76H0z"/>
	<rect width="283.46" height="42.52" rx="14.17"/>
	<rect width="283.46" height="42.52" rx="14.17" y="240.94"/>
	<path fill="#25303B" d="m111.07,196.96h-25.34l-38.62-109.23h25.8l19.62,59.48c3.71,11.43,5.56,20.08,6.33,24.26h.31c.77-4.17,2.47-12.05,6.33-23.95l19.78-59.79h24.26l-38.47,109.23zM223.53,174.1v22.71h-21.63v-22.71h-49.13v-20.24l42.33-66.12h28.43v69.37h12.82v16.99h-12.82Zm-21.63-67.21h-.31c-.46,1.85-3.55,8.5-7.88,15.29l-22.25,34.92h30.44v-50.21Z"/>
</svg>