<?xml version="1.0" encoding="UTF-8"?>
<svg xmlns="http://www.w3.org/2000/svg" width="250px" height="250px" viewBox="0 0 283.46 283.46" fill="#00814F">
	<title>Paris transit icons - Vélo 3</title>
	<path fill="#FFF" d="M0,28.35h283.46v226.76H0z"/>
	<rect width="283.46" height="42.52" rx="14.17"/>
	<rect width="283.46" height="42.52" rx="14.17" y="240.94"/>
	<path fill="#25303B" d="m114.31,196.99h-25.34l-38.62-109.23h25.8l19.62,59.48c3.71,11.43,5.56,20.08,6.33,24.26h.31c.77-4.17,2.47-12.05,6.33-23.95l19.78-59.79h24.25l-38.47,109.23zM190.63,199.46c-15.6,0-24.26-3.86-31.52-8.19l8.5-16.84c4.63,3.24,12.21,7.11,21.47,7.11,12.67,0,20.55-7.42,20.55-16.69,0-12.51-9.58-16.84-20.7-16.84h-11.28v-18.08h11.43c10.66,0,17.3-5.56,17.3-13.9,0-6.95-5.25-13.29-16.69-13.29-10.04,0-16.69,4.79-20.24,7.88l-7.88-16.07c9.27-6.18,19.31-9.73,33.06-9.73,22.25,0,34.92,13.29,34.92,27.81,0,11.28-6.03,20.24-17.61,24.57v.31c12.05,2.32,21.17,11.59,21.17,26.88,0,19.16-17.15,35.07-42.49,35.07Z"/>
</svg>