<?xml version="1.0" encoding="UTF-8"?>
<svg xmlns="http://www.w3.org/2000/svg" width="250px" height="250px" viewBox="0 0 283.46 283.46" fill="#98D4E2">
	<title>Paris transit icons - Vélo 7</title>
	<path fill="#FFF" d="M0,28.35h283.46v226.76H0z"/>
	<rect width="283.46" height="42.52" rx="14.17"/>
	<rect width="283.46" height="42.52" rx="14.17" y="240.94"/>
	<path fill="#25303B" d="m112.92,196.99h-25.34l-38.62-109.23h25.8l19.62,59.48c3.71,11.43,5.56,20.08,6.33,24.26h.31c.77-4.17,2.47-12.05,6.33-23.95l19.78-59.79h24.26l-38.47,109.23zM196.03,196.84h-24.87c0-14.37,3.86-23.64,13.44-41.4l26.57-49.44h-52.99v-18.23h76.32v17.77c-23.95,41.56-38.47,74.16-38.47,91.31Z"/>
</svg>