<?xml version="1.0" encoding="UTF-8"?>
<svg xmlns="http://www.w3.org/2000/svg" width="250px" height="250px" viewBox="0 0 283.46 283.46" fill="#F3A4BA">
	<title>Paris transit icons - Vélo 10</title>
	<path fill="#FFF" d="M0,28.35h283.46v226.76H0z"/>
	<rect width="283.46" height="42.52" rx="14.17"/>
	<rect width="283.46" height="42.52" rx="14.17" y="240.94"/>
	<path fill="#25303B" d="m72.83,197.3h-25.34L8.87,88.07h25.8l19.62,59.48c3.71,11.43,5.56,20.08,6.33,24.26h.31c.77-4.17,2.47-12.05,6.33-23.95l19.78-59.79h24.26l-38.47,109.23zM146.37,197.15v-85.75c-6.64,5.25-17.15,10.35-24.41,13.6l-7.42-16.69c11.43-4.79,25.18-12.05,36-20.24h19v109.07h-23.17zM234.58,200.08c-32.91,0-39.4-32.44-39.4-57.63s7.11-57.63,40.01-57.63,39.4,32.44,39.4,57.63-7.11,57.63-40.01,57.63Zm.31-96.87c-15.76,0-16.22,28.12-16.22,39.24s.77,39.4,16.22,39.4,16.07-28.58,16.07-39.4c0-11.43-.46-39.24-16.07-39.24Z"/>
</svg>