<?xml version="1.0" encoding="utf-8"?>
<!-- Generator: Adobe Illustrator 27.8.0, SVG Export Plug-In . SVG Version: 6.00 Build 0)  -->
<svg version="1.1" id="Calque_1" xmlns="http://www.w3.org/2000/svg" xmlns:xlink="http://www.w3.org/1999/xlink" x="0px" y="0px"
	 viewBox="0 0 250 250" style="enable-background:new 0 0 250 250;" xml:space="preserve">
<style type="text/css">
	.st0{fill:#FFFFFF;}
</style>
<path class="st0" d="M8.1,0h233.8c4.5,0,8.1,3.6,8.1,8.1v0c0,4.5-3.6,8.1-8.1,8.1H8.1C3.6,16.3,0,12.6,0,8.1v0C0,3.6,3.6,0,8.1,0z"
	/>
<path class="st0" d="M8.1,233.8h233.8c4.5,0,8.1,3.6,8.1,8.1v0c0,4.5-3.6,8.1-8.1,8.1H8.1c-4.5,0-8.1-3.6-8.1-8.1v0
	C0,237.4,3.6,233.8,8.1,233.8z"/>
<path class="st0" d="M109.7,125l1.8-6.6l4.3-16l0.8,1.2c0.2,0.2,0.3,0.4,0.5,0.7c0.7,0.9,1.6,1.6,2.6,2.1c0.5,0.3,1,0.5,1.5,0.7
	l8.9,3.3c5-0.8,9.7-3.1,13.5-6.4l-18.5-7c0,0-6.5-10.7-9.6-13.6c-1-1-2.4-1.7-3.8-1.9c-0.7-0.2-1.4-0.2-2.1-0.2l0,0
	c-0.7,0-1.3,0.1-2,0.3l-0.2,0c-0.1,0-0.1,0-0.2,0.1l0,0c-5.5,1.5-9.7,5.8-11.2,11.3L89,119.5c-0.2,1.2-0.2,2.4,0,3.6
	c0.4,1.7,1.2,3.3,2.5,4.6l2.2,2.5l3.7,4.2l17.8,18.7l-4.9,35c-0.1,3.3,2.5,6.1,5.8,6.3c1.1,0,2.1-0.2,3-0.7c1.1-1,1.8-2.4,2-3.8
	l6.2-34.9c0.2-0.8,0.2-1.6,0.1-2.4c-0.1-1.6-0.6-3.1-1.6-4.5L109.7,125z M113.6,76.7c2.8,0.6,6,0.8,8.3-0.7s3.5-4.5,4.1-7.3
	c0.6-2.8,0.8-6-0.7-8.4c-1.5-2.4-4.5-3.5-7.3-4.1c-2.8-0.6-6-0.8-8.4,0.7c-2.4,1.5-3.5,4.5-4.1,7.3c-0.6,2.8-0.8,6,0.7,8.4
	C107.7,75.1,110.8,76.1,113.6,76.7z M213.3,174.3c-0.6-15.7-12.3-28.8-27.9-31.2c-5.3-0.8-10.8-0.2-15.9,1.6l-17.3-30
	c4.8-4,8.6-9.1,11.1-14.8c0.6-1.3,0-2.8-1.3-3.3c0,0-0.1,0-0.1-0.1l-3.5-1.3c-1.2-0.4-2.6,0.1-3.1,1.3c-5.3,11.8-17.1,19.3-30,19.1
	c-1.3,0-2.5,0.9-2.6,2.3l-0.3,3.7c-0.1,1.4,0.9,2.6,2.3,2.7c0.1,0,0.1,0,0.2,0c6.2,0.1,12.4-1.1,18-3.7l4.8,8.3l-14.7,23.4
	l-4.9,27.5c1.1-0.6,2.1-1.5,2.7-2.6l23.2-37.1l6,10.3c-13.8,11.6-15.6,32.2-4.1,46c11.6,13.8,32.2,15.6,46,4.1
	C209.3,194,213.6,184.4,213.3,174.3L213.3,174.3z M178,199.1c-13.1-1.5-22.4-13.3-20.9-26.4c0.6-5.5,3.2-10.6,7.2-14.5l11.8,20.5
	c1,1.8,3.3,2.4,5.1,1.4l3.3-1.9c1.8-1,2.4-3.3,1.4-5.1L174,152.6c12.6-3.8,25.9,3.4,29.6,16s-3.4,25.9-16,29.6
	C184.5,199.2,181.2,199.4,178,199.1L178,199.1z M102.3,169.3c-1.1-5.9-3.9-11.4-7.9-15.9l6.3-8.3l-7.9-8.3l-7.2,9.6
	c-6.8-3.6-14.8-4.7-22.3-3c-17.6,3.9-28.7,21.4-24.8,38.9c3.9,17.6,21.4,28.7,38.9,24.8c13-2.9,23-13.5,25.1-26.7h3.7l1.6-11.3
	L102.3,169.3z M88.9,160.7c2,2.5,3.5,5.5,4.3,8.6H82.3L88.9,160.7z M70.3,199.3c-13.2,0.1-23.9-10.5-23.9-23.7
	c-0.1-10.7,7.1-20.2,17.4-23.1c5.4-1.6,11.2-1.1,16.3,1.2l-14.3,18.9c-1.7,2.2-1.2,5.3,1,7c0.9,0.7,1.9,1,3,1h23.8
	C91.1,191.5,81.4,199.2,70.3,199.3L70.3,199.3z"/>
</svg>
